<svg xmlns="http://www.w3.org/2000/svg" width="110" height="25"><path fill="#71CFF3" d="M5.86 0h.124c3.236 0 5.86 2.623 5.86 5.86 0 3.235-2.624 5.86-5.86 5.86H5.86C2.622 11.72 0 9.094 0 5.86 0 2.622 2.623 0 5.86 0z"/><path fill="#ACE8FF" d="M7.762 16.344h.07c2.215 0 4.012 1.796 4.012 4.012v.007c0 2.216-1.797 4.012-4.013 4.012h-.06c-2.21 0-4.01-1.796-4.01-4.012v-.007c0-2.216 1.8-4.012 4.02-4.012z"/><path fill="#3A9EC3" d="M28.094 0h5.25c5.523 0 10 4.477 10 10v5c0 5.523-4.477 10-10 10h-5.25c-5.523 0-10-4.477-10-10v-5c0-5.523 4.477-10 10-10z"/><path fill="#FFF" d="M35.86 8.89c-.033-.1-.147-.148-.342-.148-.32 0-.8-.003-1.44-.01-.642-.006-1.122-.01-1.44-.01-.197 0-.314.033-.353.098-.032.04-.05.166-.05.38 0 3.03-.005 4.663-.018 4.904-.013.273-.187.537-.523.79-.335.254-.646.38-.932.38-.736 0-1.162-.357-1.28-1.073-.07-.41-.107-1.19-.107-2.32 0-.91.068-1.81.205-2.69.013-.09.02-.16.02-.2 0-.17-.1-.25-.303-.25-.3 0-.755 0-1.367-.01-.612 0-1.068-.01-1.367-.01-.196 0-.33.14-.4.4-.242.86-.362 2.03-.362 3.52 0 1.38.08 2.42.22 3.15.32 1.56 1.34 2.34 3.07 2.34.61 0 1.29-.22 2.04-.66.75-.44 1.08-.66.99-.66.06 0 .11.15.14.45l.06.59c.03.14.11.21.24.23.28.04.78.06 1.48.06.8 0 1.33-.03 1.58-.1.17-.04.25-.15.25-.33 0-.46-.01-1.16-.05-2.1-.03-.94-.05-1.64-.05-2.11 0-.48.03-1.2.07-2.17.05-.96.07-1.69.07-2.17 0-.1-.01-.18-.02-.23z"/><path fill="#3A9EC3" d="M107.945 16.027c-1.328 1.553-3.16 2.33-5.493 2.33-.39 0-.98-.023-1.765-.066-.786-.04-1.375-.06-1.765-.06-.42 0-.63.18-.63.54 0 .45.044 1.12.132 2.01.088.89.132 1.56.132 2 0 .23-.103.34-.308.34-.596 0-1.49-.02-2.68-.05-1.192-.03-2.086-.05-2.68-.05-.285 0-.426-.14-.426-.42 0-1.08.017-2.71.05-4.88.035-2.17.052-3.8.052-4.88 0-3.06-.13-6.29-.395-9.67l-.02-.2c-.02-.18.12-.3.44-.33.76-.1 2.44-.15 5.04-.15 1.53 0 3 .02 4.41.06 2.31.07 4.18.8 5.59 2.18 1.44 1.43 2.17 3.3 2.17 5.6 0 2.37-.62 4.28-1.86 5.75zm-7.31-8.92c-1.562 0-2.382.087-2.46.263-.07.127-.103 1.255-.103 3.384 0 .303.012.75.037 1.34.02.59.03 1.038.03 1.34 0 .196.88.294 2.63.294 2.12 0 3.18-1.07 3.18-3.208 0-2.276-1.11-3.414-3.33-3.414zm-11.073 15.44c0 .204-.044.33-.132.38-.04.03-.176.054-.41.073-.596.06-1.436.088-2.52.088-1.533 0-2.434-.03-2.703-.088-.268-.06-.402-.19-.402-.396 0-.77.036-1.93.11-3.48.073-1.546.11-2.706.11-3.478 0-.38-.108-.6-.323-.66-.332-.077-1.514-.116-3.545-.116-2.04 0-3.232.04-3.574.117-.215.05-.322.27-.322.66 0 .76.03 1.9.08 3.42s.08 2.66.08 3.42c0 .293-.13.464-.39.513-.31.06-1.23.088-2.75.088-1.32 0-2.16-.03-2.52-.088-.28-.05-.42-.2-.42-.454 0-1.055.05-2.646.16-4.775.1-2.12.16-3.72.16-4.79 0-1.13-.04-2.83-.14-5.1-.09-2.27-.14-3.97-.14-5.1 0-.21.1-.32.31-.32.3 0 .76.02 1.37.05.61.03 1.06.05 1.37.05.31 0 .78-.01 1.41-.04.63-.03 1.1-.04 1.41-.04.166 0 .25.09.25.27 0 .73-.055 1.83-.162 3.29-.105 1.46-.16 2.56-.16 3.29 0 .34.09.54.28.6.25.08 1.5.12 3.75.12 2.09 0 3.3-.04 3.63-.114.234-.06.35-.26.35-.6 0-.704-.033-1.766-.1-3.19-.07-1.42-.104-2.49-.104-3.2 0-.3.12-.453.36-.453.285 0 .717.02 1.298.045.58.03 1.02.05 1.31.05.28 0 .71-.014 1.3-.043.58-.03 1.02-.04 1.31-.04.288 0 .43.12.43.36 0 1.12-.044 2.816-.14 5.08-.09 2.27-.136 3.97-.136 5.1 0 1.065.05 2.66.15 4.79.1 2.13.15 3.72.15 4.776zm-29.02-4.19c-.39 0-.978-.023-1.764-.066-.786-.04-1.375-.06-1.765-.06-.42 0-.63.18-.63.54 0 .45.044 1.12.132 2.01.088.89.13 1.56.13 2 0 .23-.1.34-.306.34-.6 0-1.49-.02-2.69-.05-1.19-.03-2.09-.05-2.68-.05-.29 0-.43-.14-.43-.42 0-1.08.01-2.71.05-4.88s.05-3.8.05-4.88c0-3.06-.14-6.29-.4-9.67l-.02-.2c-.02-.18.12-.3.44-.33.76-.1 2.44-.15 5.04-.15 1.53 0 3 .02 4.41.06 2.31.07 4.18.8 5.59 2.18 1.44 1.43 2.16 3.3 2.16 5.6 0 2.37-.62 4.28-1.86 5.74-1.33 1.55-3.16 2.33-5.5 2.33zm-1.815-11.25c-1.563 0-2.383.087-2.46.263-.07.127-.104 1.255-.104 3.384 0 .303.012.75.037 1.34.024.59.036 1.038.036 1.34 0 .196.88.294 2.637.294 2.12 0 3.18-1.07 3.18-3.208 0-2.276-1.11-3.414-3.326-3.414z"/></svg>