<svg version="1.1" xmlns="http://www.w3.org/2000/svg" xmlns:xlink="http://www.w3.org/1999/xlink" width="32" height="32" viewBox="0 0 32 32">
<path id="Window" d="M29.000,28.000 C29.000,28.000 29.000,26.000 29.000,26.000 C29.551,26.000 30.000,25.552 30.000,25.000 C30.000,25.000 30.000,3.000 30.000,3.000 C30.000,2.449 29.551,2.000 29.000,2.000 C29.000,2.000 7.000,2.000 7.000,2.000 C6.449,2.000 6.000,2.449 6.000,3.000 C6.000,3.000 4.000,3.000 4.000,3.000 C4.000,1.346 5.346,0.000 7.000,0.000 C7.000,0.000 29.000,0.000 29.000,0.000 C30.654,0.000 32.000,1.346 32.000,3.000 C32.000,3.000 32.000,25.000 32.000,25.000 C32.000,26.654 30.654,28.000 29.000,28.000 zM28.000,7.000 C28.000,7.000 28.000,29.000 28.000,29.000 C28.000,30.654 26.654,32.000 25.000,32.000 C25.000,32.000 3.000,32.000 3.000,32.000 C1.346,32.000 0.000,30.654 0.000,29.000 C0.000,29.000 0.000,7.000 0.000,7.000 C0.000,5.346 1.346,4.000 3.000,4.000 C3.000,4.000 25.000,4.000 25.000,4.000 C26.654,4.000 28.000,5.346 28.000,7.000 zM2.000,29.000 C2.000,29.552 2.449,30.000 3.000,30.000 C3.000,30.000 25.000,30.000 25.000,30.000 C25.551,30.000 26.000,29.552 26.000,29.000 C26.000,29.000 26.000,14.000 26.000,14.000 L2.000,14.000 C2.000,14.000 2.000,29.000 2.000,29.000 zM2.000,7.000 C2.000,7.000 2.000,12.000 2.000,12.000 L26.000,12.000 C26.000,12.000 26.000,7.000 26.000,7.000 C26.000,6.449 25.551,6.000 25.000,6.000 C25.000,6.000 3.000,6.000 3.000,6.000 C2.449,6.000 2.000,6.449 2.000,7.000 zM21.000,8.000 L23.000,8.000 L23.000,10.000 L21.000,10.000 L21.000,8.000 zM18.000,10.000 C18.000,10.000 5.000,10.000 5.000,10.000 C4.448,10.000 4.000,9.552 4.000,9.000 C4.000,8.448 4.448,8.000 5.000,8.000 C5.000,8.000 18.000,8.000 18.000,8.000 C18.552,8.000 19.000,8.448 19.000,9.000 C19.000,9.552 18.552,10.000 18.000,10.000 z" fill="#3A9EC3" />
</svg>
